<?xml version="1.0" encoding="utf-8"?>
<!-- Generator: Adobe Illustrator 27.1.0, SVG Export Plug-In . SVG Version: 6.00 Build 0)  -->
<svg version="1.1" id="Layer_1" xmlns="http://www.w3.org/2000/svg" xmlns:xlink="http://www.w3.org/1999/xlink" x="0px" y="0px"
	 viewBox="0 0 1000 1000" style="enable-background:new 0 0 1000 1000;" xml:space="preserve">
<style type="text/css">
	.st0{fill:#60BA43;}
</style>
<path class="st0" d="M906.9,197.2L500.2,18.1c-4.4-1.9-9.4-1.9-13.8,0L79.7,197.2c-6.5,2.9-10.6,9.5-10.2,16.6l27.3,477.1
	c0.3,5.1,2.9,9.9,7.1,12.9l379.4,274.3c3,2.2,6.5,3.2,10,3.2c3.5,0,7-1.1,10-3.2l379.4-274.3c4.2-3,6.8-7.8,7.1-12.9l27.3-477.1
	C917.5,206.7,913.4,200,906.9,197.2z M327.6,336.8l165.7-71.2L659,336.8l-165.7,98.9L327.6,336.8z M476.2,465.4V670l-162.8-94.2
	L308,365L476.2,465.4z M510.4,465.4L678.6,365l-5.4,210.8L510.4,670V465.4z M695.3,315.2l-184.8-79.4V60l352.3,155.1L695.3,315.2z
	 M476.2,235.7l-184.8,79.4l-167.5-100L476.2,60V235.7z M273.2,344.2l6,231.8l-149.8,85.3l-23.9-417.3L273.2,344.2z M296.5,605.6
	l179.7,104v221.2L145.5,691.6L296.5,605.6z M510.4,709.5l179.7-104l151,86.1L510.4,930.7V709.5z M707.4,576l6-231.8l167.7-100.1
	l-23.9,417.3L707.4,576z"/>
</svg>
